#!OML:ASF F:\VICON\USERDATA\INSTALL\rory3\rory3.ASF
:FULLY-SPECIFIED
:DEGREES
69
root -0.3319822367517855 16.6977554172378 37.6946726977594 5.790095137225503 -3.8959959020190804 -6.158517103954477
lfemur -36.677264819683025 -3.8867266175605355 -11.769444728905224
ltibia 34.387141145433745
lfoot 5.6760101845237045 -3.23447667400372
ltoes -6.7842438812121815
rfemur 17.460706282981715 4.011492201854063 36.42753237701046
rtibia 50.39286264104129
rfoot -7.219656832460448 -0.6027552083413035
rtoes -15.866436388724317
lowerback 12.96994931990566 3.174305412162506 6.669316520237442
upperback -1.2746707681154579 5.444488099805696 2.1824819524043946
thorax -8.824360600721702 2.31307641218379 -3.102409607160318
lowerneck -20.80000743968087 -4.132817879114394 -1.697993706497285
upperneck 12.073708252657983 -5.990762349844202 3.5451913734165545
head 7.303099250091184 -2.461518332629086 0.7782269893636532
lclavicle -3.2721371069796043e-16 2.8003691676720655e-15
lhumerus -67.7788350822819 -1.6060592116294838 91.97692152867465
lradius 91.86880835919392
lwrist 27.360679188886344
lhand -24.35621173320166 2.9527727385906224
lfingers 7.12502
lthumb 2.1333398758885718 32.922075470897816
rclavicle -3.2721371069796043e-16 2.8003691676720655e-15
rhumerus -34.38178793869208 15.167878003221215 -99.97816837371872
rradius 117.45649962012855
rwrist -13.016800315046558
rhand -17.892872428498073 40.95988967160736
rfingers 7.12502
rthumb 8.373292785179117 11.228721053892034
70
root -0.23119741860263865 16.72328775755925 38.58406015712403 4.6453252792067286 -3.5446883746097524 -5.346058922838514
lfemur -36.51883985276934 -2.3595844084230424 -14.48950285473882
ltibia 40.90365740021841
lfoot 6.510183914791046 -6.327069058438367
ltoes -4.939373390372881
rfemur 15.890356389240647 2.501796865292815 34.26015438432663
rtibia 61.41202192523903
rfoot 5.3197028525419245 2.69698450095654
rtoes -14.191825632258674
lowerback 12.827114527435295 3.166253333986663 5.748816144725762
upperback -1.3455706401397491 5.310184524378131 1.6505506438833666
thorax -8.888446825231535 2.2699488137397883 -3.004011792025865
lowerneck -20.40516798092314 -4.56285500353128 -1.7566901836907864
upperneck 12.484348843303252 -6.566406109339486 3.625244963356468
head 7.372747151334295 -2.7445157900508446 0.7787567627500773
lclavicle -1.0630659182642134e-15 2.26659639816742e-15
lhumerus -70.32925227885585 -0.49825010221390187 90.79277810262865
lradius 89.8251015740078
lwrist 26.231455225981854
lhand -23.567427926833187 3.2601121347938924
lfingers 7.12502
lthumb 2.8950751827594 33.225017881374605
rclavicle -1.0630659182642134e-15 2.26659639816742e-15
rhumerus -36.96467440634815 13.689199901721523 -99.86234657142599
rradius 117.21078891920533
rwrist -12.676711589550036
rhand -17.85039585879796 40.87900007578223
rfingers 7.12502
rthumb 8.41434978515548 11.090784109674985
71
root -0.1386832654463127 16.89343306966446 38.64003398709339 3.405367187224453 -3.4721005999258723 -4.331092417897894
lfemur -34.948428689434344 -1.1856482513901918 -17.567326373027594
ltibia 46.56703552424105
lfoot 5.120920158151102 -8.159679860956057
ltoes -3.3708503293353784
rfemur 9.87326786056716 0.6183984633093726 31.598960126099453
rtibia 76.0693145938963
rfoot 20.793744510821632 3.961965647586852
rtoes -4.026982487690743
lowerback 13.083705668202624 3.0997859806276735 4.455171305524517
upperback -1.3366867882731848 5.0506061444074035 1.040270323101936
thorax -9.062290007356951 2.178673998506009 -2.7213345043046853
lowerneck -20.175930947621673 -4.746567462070292 -1.8668810981264188
upperneck 12.789790721617859 -6.811437479306222 3.6862996602733022
head 7.432578734984724 -2.8601614364886494 0.8006257430454272
lclavicle -2.046683025244546e-15 1.5530923269307338e-15
lhumerus -71.81330979143982 -0.8146644483275551 90.55687343961662
lradius 89.58042927068115
lwrist 26.873192967191283
lhand -23.37572053084576 3.4122835013393926
lfingers 7.12502
lthumb 3.080176124356311 33.37048818375593
rclavicle -2.046683025244546e-15 1.5530923269307338e-15
rhumerus -40.3585499140028 12.349262621180042 -99.83167504922032
rradius 116.61579702424564
rwrist -12.286155866191196
rhand -17.61597119862695 40.745847143795686
rfingers 7.12502
rthumb 8.64065900211581 10.941991337012764
72
root -0.05587017802973171 17.153805976549403 39.45852418175211 2.4278408393959525 -3.5308485856964364 -3.1592522514278913
lfemur -30.72656622408091 -0.6801050842203898 -20.156642650843395
ltibia 50.03885142234161
lfoot 2.0076078378426243 -7.806633553217817
ltoes -2.108256777774411
rfemur 1.1819082268960202 -1.2745324181484556 29.217908818954516
rtibia 93.89864410823097
rfoot 32.67504648222204 2.2093496810330118
rtoes 10.67154959517355
lowerback 13.85340925906369 3.0305506696797875 3.1372227168106557
upperback -1.0890880250040744 4.786926371202482 0.5481745669762188
thorax -9.260071842932337 2.0863398043745747 -2.0856941978895622
lowerneck -20.107214861740637 -4.410559303018006 -1.95284747840896
upperneck 12.840380267956764 -6.37403633724448 3.738141399625408
head 7.450388904709692 -2.6313491047449946 0.860003161264227
lclavicle -1.7882268642026676e-15 1.7405479743919423e-15
lhumerus -70.71664137038783 -2.1709923709903833 91.55218187787074
lradius 91.34911981496543
lwrist 29.049686883286125
lhand -24.021054166036514 3.0282383818615193
lfingers 7.12502
lthumb 2.456935351901529 32.98206388413357
rclavicle -1.7882268642026676e-15 1.7405479743919423e-15
rhumerus -42.797448527462464 11.56419281452222 -99.7017740312238
rradius 115.85187901331274
rwrist -11.683250813639429
rhand -17.127839028582564 40.61072842577111
rfingers 7.12502
rthumb 9.111785257315978 10.81342877555008
